<svg width="32" height="32" viewBox="0 0 32 32" fill="none" xmlns="http://www.w3.org/2000/svg">
<circle cx="16" cy="16" r="16" fill="#38470B"/>
<path d="M12.3442 22.6698C12.1238 22.4584 12 22.1716 12 21.8725C12 21.5735 12.1238 21.2867 12.3442 21.0753L18.1627 15.4932L12.3442 9.91111C12.13 9.69843 12.0116 9.41357 12.0142 9.11789C12.0169 8.82222 12.1405 8.53938 12.3585 8.33029C12.5764 8.12121 12.8712 8.00261 13.1794 8.00004C13.4876 7.99747 13.7846 8.11114 14.0063 8.31656L20.6558 14.6959C20.8762 14.9074 21 15.1942 21 15.4932C21 15.7922 20.8762 16.079 20.6558 16.2905L14.0063 22.6698C13.7858 22.8812 13.4869 23 13.1752 23C12.8635 23 12.5646 22.8812 12.3442 22.6698Z" fill="#FFFDDE"/>
</svg>
