<svg width="32" height="32" viewBox="0 0 32 32" fill="none" xmlns="http://www.w3.org/2000/svg">
<circle cx="16" cy="16" r="16" fill="#38470B"/>
<path d="M13.606 21.9564L21.1062 14.4563L17.5437 10.8938L10.0436 18.394C9.9403 18.4974 9.86695 18.6268 9.83129 18.7685L9 23L13.2307 22.1687C13.3727 22.1332 13.5027 22.0598 13.606 21.9564ZM23.5274 12.035C23.83 11.7323 24 11.3219 24 10.8938C24 10.4658 23.83 10.0553 23.5274 9.75263L22.2474 8.4726C21.9447 8.17 21.5342 8 21.1062 8C20.6781 8 20.2677 8.17 19.965 8.4726L18.6849 9.75263L22.2474 13.3151L23.5274 12.035Z" fill="#FFFDDE"/>
</svg>
