<svg width="324" height="41" viewBox="0 0 324 41" fill="none" xmlns="http://www.w3.org/2000/svg">
<path d="M23.4985 21.325L25.4335 20.65L24.9385 12.055H23.7235C23.2285 12.055 22.9585 12.325 22.8685 12.82C22.6885 13.99 22.3285 15.025 21.5635 15.025C19.8535 12.955 17.4235 11.335 13.4185 11.335C6.17354 11.335 0.188535 17.32 0.188535 25.555C0.188535 34.645 6.80354 40.675 14.1385 40.675C19.7185 40.675 23.0485 38.2 24.8485 35.14C25.2985 34.33 25.5685 33.835 25.4335 33.385C25.2985 32.89 24.2185 32.215 23.7235 32.215C23.0935 32.26 22.8235 32.98 22.1035 34.015C20.5285 36.175 18.5485 37.75 15.2185 37.75C10.2235 37.75 5.72354 32.395 5.72354 24.88C5.72354 17.23 9.63854 13.765 14.2285 13.765C17.2435 13.765 20.1685 15.16 21.8335 19.21C22.1035 19.885 22.3285 20.425 22.4635 20.83C22.6435 21.325 23.0035 21.505 23.4985 21.325ZM53.7364 34.375L44.4664 13.54C44.1514 12.775 43.5214 12.37 42.8914 12.145L41.2264 11.695L31.2364 35.5C30.3814 37.57 30.0214 37.705 27.8614 38.155V40H36.5464V38.155C34.3414 37.705 33.5764 37.165 34.0264 36.04L36.3664 30.28H46.8514L49.4614 36.265C49.9114 37.345 49.9564 37.705 47.3914 38.155V40H57.7864V38.155C55.7614 37.705 55.1314 37.525 53.7364 34.375ZM37.2664 28.075L41.4514 17.77L45.9064 28.075H37.2664ZM82.1799 17.68L81.3249 13.675C81.0999 12.505 80.3799 12.055 79.4349 12.055H59.8149V13.855C61.5249 14.26 62.4249 14.62 62.4249 15.97V36.175C62.4249 37.48 61.5249 37.885 59.8149 38.29V40H70.1199V38.29C68.4549 37.885 67.5099 37.48 67.5099 36.175V26.95H75.1599C76.6449 26.95 76.8699 27.805 77.4549 29.2H78.5799V22.315H77.4549C76.8699 23.755 76.6449 24.52 75.1599 24.52H67.5099V14.575H75.9699C77.9049 14.575 78.9849 14.935 79.5699 16.195L80.2899 17.68H82.1799ZM94.994 6.52L99.809 1.48C100.844 0.399998 102.014 0.174998 102.914 1.3C103.904 2.515 103.364 3.82 102.104 4.54L95.984 8.005C95.534 8.275 95.039 8.275 94.724 7.87C94.409 7.42 94.544 6.97 94.994 6.52ZM108.809 34.51H106.559L105.389 35.995C104.579 37.03 104.174 37.435 102.374 37.435L92.789 37.525V26.95H100.484C101.969 26.95 102.194 27.805 102.779 29.2H103.904V22.315H102.779C102.194 23.755 101.969 24.52 100.484 24.52H92.789V14.575H100.169C102.104 14.575 103.184 14.935 103.769 16.195L104.444 17.68H106.334V12.865C106.334 12.19 106.154 12.055 105.569 12.055H85.094V13.855C86.804 14.26 87.704 14.62 87.704 15.97V36.04C87.704 37.345 86.804 37.75 85.094 38.11V40H106.019C106.604 40 107.189 39.64 107.369 38.965C107.729 37.525 108.089 35.95 108.809 34.51ZM140.012 12.055V13.945C141.767 14.17 142.982 14.8 142.172 15.88L135.872 24.61L129.257 15.43C128.717 14.71 129.617 14.17 130.922 13.945V12.055H120.932V13.945C122.912 14.17 123.317 15.16 125.117 17.725L132.497 27.985V36.49C132.497 37.525 130.787 37.75 129.167 37.975V40H140.282V37.975C138.662 37.75 136.997 37.525 136.997 36.49V26.815L144.467 16.6C145.637 14.98 146.357 14.17 148.247 13.945V12.055H140.012ZM183.187 34.42H180.937L180.172 35.86C179.497 37.12 178.507 37.165 176.572 37.255L169.012 37.615C167.932 37.705 167.212 36.85 167.212 35.725V15.97C167.212 14.62 168.202 14.26 169.867 13.855V12.055H159.562V13.855C161.227 14.26 162.262 14.62 162.262 15.97V36.175C162.262 37.48 161.227 37.885 159.562 38.29V40H180.757C181.342 40 181.927 39.64 182.107 38.965L183.187 34.42ZM209.62 34.51H207.37L206.2 35.995C205.39 37.03 204.985 37.435 203.185 37.435L193.6 37.525V26.95H201.295C202.78 26.95 203.005 27.805 203.59 29.2H204.715V22.315H203.59C203.005 23.755 202.78 24.52 201.295 24.52H193.6V14.575H200.98C202.915 14.575 203.995 14.935 204.58 16.195L205.255 17.68H207.145V12.865C207.145 12.19 206.965 12.055 206.38 12.055H185.905V13.855C187.615 14.26 188.515 14.62 188.515 15.97V36.04C188.515 37.345 187.615 37.75 185.905 38.11V40H206.83C207.415 40 208 39.64 208.18 38.965C208.54 37.525 208.9 35.95 209.62 34.51ZM235.681 13.135C235.636 12.46 235.231 12.055 234.646 12.055H212.821C212.236 12.055 211.831 12.46 211.786 13.135L211.426 17.455H212.911L213.586 15.97C213.991 15.16 214.666 14.53 215.701 14.53H221.236V36.175C221.236 37.48 220.246 37.885 218.581 38.29V40H228.931V38.29C227.221 37.885 226.231 37.48 226.231 36.175V14.53H231.766C232.801 14.53 233.476 15.16 233.881 15.97L234.556 17.455H236.041L235.681 13.135ZM266.132 38.065H265.097C262.892 37.84 261.722 35.05 260.912 32.44C259.967 29.515 258.392 27.4 254.477 26.86C259.832 26.14 262.352 23.125 262.352 19.705C262.352 15.25 258.347 12.055 251.957 12.055H238.727V13.765C240.437 14.17 241.337 14.845 241.337 16.15V36.175C241.337 37.48 240.437 37.885 238.727 38.29V40H248.942V38.29C247.322 37.885 246.287 37.48 246.287 36.175V27.625H249.347C252.542 27.625 253.892 28.975 255.062 32.755C256.457 37.3 258.662 39.1 260.867 40H266.132V38.065ZM252.002 25.33H246.287V14.08H252.362C255.737 14.08 257.087 16.735 257.087 19.705C257.087 22.54 255.962 25.33 252.002 25.33ZM294.029 34.375L284.759 13.54C284.444 12.775 283.814 12.37 283.184 12.145L281.519 11.695L271.529 35.5C270.674 37.57 270.314 37.705 268.154 38.155V40H276.839V38.155C274.634 37.705 273.869 37.165 274.319 36.04L276.659 30.28H287.144L289.754 36.265C290.204 37.345 290.249 37.705 287.684 38.155V40H298.079V38.155C296.054 37.705 295.424 37.525 294.029 34.375ZM277.559 28.075L281.744 17.77L286.199 28.075H277.559ZM319.728 20.56L321.663 20.245L321.078 14.53C318.333 13.99 317.028 11.29 311.268 11.29C304.608 11.29 300.873 15.61 301.503 20.2C302.178 25.51 307.308 27.22 310.593 28.255C314.013 29.29 317.568 30.145 317.883 33.43C318.243 36.895 315.273 37.975 312.123 37.975C308.613 37.975 306.138 36.49 304.833 33.88C304.518 33.25 304.158 32.62 303.843 32.035C303.483 31.36 303.078 31.18 302.403 31.45L300.558 32.08L302.898 39.145C305.688 38.2 307.263 40.675 312.168 40.675C317.163 40.675 323.553 37.93 322.878 31.765C322.248 25.78 315.003 24.205 312.213 23.35C309.063 22.36 306.318 21.505 305.958 18.805C305.643 16.195 307.713 13.675 311.268 13.675C314.418 13.675 317.523 15.745 318.153 18.22L318.648 20.02C318.783 20.515 319.143 20.65 319.728 20.56Z" fill="#38470B"/>
</svg>
